<?xml version="1.0" encoding="UTF-8" standalone="no"?>
<!-- Created with Inkscape (http://www.inkscape.org/) -->

<svg
   xmlns:dc="http://purl.org/dc/elements/1.1/"
   xmlns:cc="http://creativecommons.org/ns#"
   xmlns:rdf="http://www.w3.org/1999/02/22-rdf-syntax-ns#"
   xmlns:svg="http://www.w3.org/2000/svg"
   xmlns="http://www.w3.org/2000/svg"
   xmlns:sodipodi="http://sodipodi.sourceforge.net/DTD/sodipodi-0.dtd"
   xmlns:inkscape="http://www.inkscape.org/namespaces/inkscape"
   width="256"
   height="256"
   viewBox="0 0 67.733331 67.733331"
   version="1.1"
   id="svg1005"
   inkscape:version="0.92.4 5da689c313, 2019-01-14"
   sodipodi:docname="ressources.svg">
  <defs
     id="defs999" />
  <sodipodi:namedview
     id="base"
     pagecolor="#ffffff"
     bordercolor="#666666"
     borderopacity="1.0"
     inkscape:pageopacity="0.0"
     inkscape:pageshadow="2"
     inkscape:zoom="1.979899"
     inkscape:cx="50.951828"
     inkscape:cy="128.72446"
     inkscape:document-units="mm"
     inkscape:current-layer="layer1"
     showgrid="false"
     units="px"
     inkscape:pagecheckerboard="true"
     inkscape:window-width="941"
     inkscape:window-height="1025"
     inkscape:window-x="2331"
     inkscape:window-y="41"
     inkscape:window-maximized="0" />
  <metadata
     id="metadata1002">
    <rdf:RDF>
      <cc:Work
         rdf:about="">
        <dc:format>image/svg+xml</dc:format>
        <dc:type
           rdf:resource="http://purl.org/dc/dcmitype/StillImage" />
        <dc:title></dc:title>
      </cc:Work>
    </rdf:RDF>
  </metadata>
  <g
     inkscape:label="Calque 1"
     inkscape:groupmode="layer"
     id="layer1"
     transform="translate(0,-229.26668)">
    <path
       inkscape:connector-curvature="0"
       style="opacity:1;vector-effect:none;fill:#ffffff;fill-opacity:1;stroke:none;stroke-width:5.23468637;stroke-linecap:round;stroke-linejoin:round;stroke-miterlimit:4;stroke-dasharray:none;stroke-dashoffset:0;stroke-opacity:1"
       d="m 56.99639,229.02377 -46.58625,0.3268 c -6.8633205,0 -9.80795723,7.00743 -9.80795723,12.42369 l 9.43125123,14.12255 c -4.3901948,2.60565 -6.7463639,5.21152 -8.01301,7.81717 H 0.10947209 v 33.52894 H 67.623861 v -33.52894 h -2.665594 c -1.073643,-3.51461 -3.413509,-6.1247 -8.468305,-6.79559 L 67.131158,241.4462 c 0,-3.36797 -2.1718,-12.42243 -10.134768,-12.42243 z m -23.129725,5.32997 c 0.513211,0.001 1.026574,0.17186 1.026574,0.50766 v 8.66664 c 0,0.84229 -2.053146,0.67489 -2.053146,0 v -8.66664 c 0,-0.34111 0.513368,-0.50899 1.026572,-0.50766 z m 18.472098,3.87926 c 0.593085,-0.0374 1.646703,1.13114 1.231144,1.54672 l -6.128265,6.12826 c -0.595576,0.5956 -1.929154,-0.97346 -1.451925,-1.45066 l 6.128264,-6.12951 c 0.0603,-0.0603 0.136041,-0.0896 0.220789,-0.0949 z m -36.851883,0.0335 c 0.08441,0.005 0.158923,0.0343 0.218278,0.0936 l 6.128265,6.12828 c 0.595595,0.59558 -0.974695,1.92914 -1.451923,1.45191 l -6.12826,-6.12827 c -0.42212,-0.4221 0.642792,-1.58064 1.233635,-1.54547 z m 19.244206,11.64657 c 3.651645,0.0299 5.933996,2.67142 7.526541,4.67759 6.665592,-2.43971 8.779924,1.26511 11.289825,4.43559 4.659792,-0.90075 6.601648,1.64267 8.146482,4.68756 H 27.018685 l -20.9680598,-0.091 c 2.044282,-1.9085 2.1795479,-3.81686 7.7410968,-5.72537 0.186296,-3.14687 3.879227,-10.28669 12.741738,-4.51543 3.323434,-2.5644 6.006634,-3.4869 8.197626,-3.4689 z m -3.047295,19.8392 h 4.364502 v 9.35391 h -4.364502 z"
       id="rect945" />
  </g>
</svg>
